<svg width="520" height="120" viewBox="0 0 520 120" fill="none" xmlns="http://www.w3.org/2000/svg">
  <!-- Globe Icon (scaled to fit 100x100 area, offset 10,10) -->
  <g transform="translate(10, 10) scale(0.5)">
    <!-- Outer gray ring -->
    <circle cx="100" cy="100" r="95" fill="#E0E0E0" opacity="0.3"/>
    <circle cx="100" cy="100" r="90" fill="#D0D0D0" opacity="0.2"/>
    <!-- Globe base -->
    <circle cx="100" cy="100" r="82" fill="#1B3A6B"/>
    <!-- Continents -->
    <path d="M55 55 C60 45, 75 40, 80 45 C85 50, 82 60, 78 65 C74 70, 65 72, 58 68 C52 64, 50 58, 55 55Z" fill="#7CB342"/>
    <path d="M62 105 C65 98, 72 95, 76 100 C80 105, 78 115, 75 122 C72 128, 66 130, 63 125 C60 120, 59 112, 62 105Z" fill="#7CB342"/>
    <path d="M100 42 C105 38, 115 40, 118 45 C121 50, 118 55, 114 58 C110 61, 104 60, 100 56 C97 52, 96 46, 100 42Z" fill="#7CB342"/>
    <path d="M108 68 C112 62, 122 60, 128 65 C134 70, 135 82, 132 92 C129 102, 120 108, 115 105 C110 102, 105 90, 106 80 C107 74, 105 72, 108 68Z" fill="#7CB342"/>
    <path d="M120 42 C128 38, 140 42, 145 50 C150 58, 148 65, 142 68 C136 71, 128 68, 124 62 C120 56, 116 48, 120 42Z" fill="#7CB342"/>
    <path d="M135 110 C140 106, 148 108, 150 114 C152 120, 148 126, 142 127 C136 128, 132 124, 132 118 C132 114, 132 112, 135 110Z" fill="#7CB342"/>
    <!-- Compass needle -->
    <line x1="38" y1="162" x2="162" y2="38" stroke="white" stroke-width="4" stroke-linecap="round"/>
    <line x1="42" y1="158" x2="158" y2="42" stroke="#F9A825" stroke-width="3" stroke-linecap="round"/>
    <circle cx="100" cy="100" r="5" fill="white"/>
    <!-- Decorative diamonds -->
    <rect x="168" y="22" width="12" height="12" rx="2" fill="#F9A825" transform="rotate(15 174 28)"/>
    <rect x="178" y="36" width="10" height="10" rx="2" fill="#1B3A6B" transform="rotate(15 183 41)"/>
    <rect x="164" y="38" width="7" height="7" rx="1" fill="#7CB342" transform="rotate(15 167.5 41.5)"/>
    <rect x="14" y="155" width="8" height="8" rx="1" fill="#7CB342" transform="rotate(15 18 159)"/>
    <rect x="6" y="145" width="6" height="6" rx="1" fill="#1B3A6B" transform="rotate(15 9 148)"/>
  </g>

  <!-- Text: "Tech" in navy -->
  <text x="130" y="78" font-family="Georgia, 'Times New Roman', serif" font-weight="700" font-size="52" fill="#1B2A4A">Tech</text>
  <!-- Text: "Compass" in green -->
  <text x="258" y="78" font-family="Georgia, 'Times New Roman', serif" font-weight="700" font-size="52" fill="#7CB342">Compass</text>
</svg>
